<?xml version="1.0" standalone="no"?>
<!DOCTYPE svg PUBLIC "-//W3C//DTD SVG 20010904//EN"
 "http://www.w3.org/TR/2001/REC-SVG-20010904/DTD/svg10.dtd">
<svg version="1.0" xmlns="http://www.w3.org/2000/svg"
 width="400.000000pt" height="400.000000pt" viewBox="0 0 400.000000 400.000000"
 preserveAspectRatio="xMidYMid meet">
<g transform="translate(0.000000,400.000000) scale(0.100000,-0.100000)"
fill="#000000" stroke="none">
<path d="M257 3965 c-16 -20 -40 -61 -53 -93 -14 -31 -43 -93 -65 -137 -22
-44 -39 -92 -39 -107 0 -15 -5 -30 -10 -33 -6 -4 -7 -12 -1 -23 5 -10 5 -25
-2 -39 -11 -25 -27 -31 -28 -10 0 6 -9 -21 -18 -61 -10 -40 -24 -79 -30 -85
-8 -8 -11 -112 -11 -350 0 -334 0 -338 20 -332 26 8 26 -7 0 -23 -19 -12 -20
-23 -20 -242 0 -218 1 -231 20 -247 11 -10 20 -25 20 -33 0 -9 7 -25 15 -36
15 -18 15 -18 13 11 -2 17 -7 33 -11 36 -12 9 -19 117 -8 123 5 3 12 -14 15
-38 7 -46 27 -73 46 -61 17 11 11 37 -10 42 -11 3 -20 7 -20 9 0 24 24 104 31
104 16 0 21 -27 9 -50 -16 -30 5 -74 32 -67 13 4 18 -1 18 -14 0 -11 6 -22 14
-25 20 -8 27 -42 14 -70 -8 -18 -7 -31 7 -59 14 -31 15 -44 6 -80 -6 -24 -11
-46 -11 -48 0 -3 13 -10 30 -16 16 -5 30 -15 30 -20 0 -17 -50 -13 -56 4 -4 8
-15 15 -25 15 -13 0 -17 -5 -12 -16 5 -14 3 -14 -16 -3 -11 8 -21 20 -21 27 0
7 -9 30 -20 52 -11 22 -20 48 -20 58 0 10 -10 27 -21 38 -21 19 -22 19 -16 -1
4 -11 9 -46 12 -78 7 -74 80 -216 111 -217 18 0 25 29 12 50 -16 25 -5 35 20
19 17 -11 27 -10 61 6 23 10 43 16 46 14 2 -3 0 -22 -5 -44 -9 -41 1 -74 23
-76 44 -4 70 -19 58 -33 -20 -24 -6 -51 27 -54 34 -4 50 -32 38 -70 -8 -23
-74 -37 -128 -27 -34 6 -64 45 -47 62 4 4 11 25 14 45 6 31 4 39 -10 45 -11 4
-22 0 -29 -9 -6 -8 -21 -14 -33 -13 -12 1 -20 -2 -17 -7 3 -4 1 -8 -5 -8 -5 0
-12 6 -14 13 -4 8 -6 7 -6 -3 -1 -8 -5 -22 -11 -30 -15 -23 -46 13 -66 78 -10
32 -21 59 -25 62 -15 11 -58 159 -64 220 -11 106 -16 83 -12 -50 5 -146 15
-196 41 -193 14 1 17 -4 12 -25 -3 -15 -9 -43 -12 -62 -3 -19 -13 -51 -22 -70
-14 -30 -17 -72 -17 -275 0 -325 1 -329 47 -371 39 -35 58 -42 58 -23 0 7 12
9 34 5 18 -4 43 -3 55 2 20 7 19 9 -18 25 -24 11 -48 32 -60 53 -22 37 -28 94
-11 94 6 0 10 12 10 28 0 15 3 37 6 50 5 18 9 20 21 11 11 -9 17 -8 28 7 8 10
15 25 15 33 0 33 78 -27 104 -81 10 -21 21 -38 26 -38 11 0 10 54 -2 61 -15 9
2 59 21 59 24 0 71 -47 71 -71 0 -11 5 -29 11 -40 5 -11 12 -43 14 -72 1 -29
8 -65 14 -80 18 -47 15 -57 -21 -53 -26 2 -37 12 -54 42 -15 27 -19 44 -13 56
7 13 5 15 -10 11 -11 -3 -17 -11 -15 -18 5 -13 -59 -75 -79 -75 -7 -1 -26 -20
-44 -43 -18 -23 -73 -94 -122 -157 l-91 -115 0 -317 0 -318 190 0 190 0 -11
27 c-5 15 -26 92 -45 172 -30 124 -36 169 -41 301 -4 120 -2 170 10 220 21 85
62 185 77 185 10 0 66 -114 101 -207 6 -16 15 -28 20 -28 5 0 9 -5 9 -11 0
-19 93 -166 142 -224 9 -11 43 -54 76 -95 57 -72 169 -181 300 -288 l63 -52
802 0 803 0 17 30 c10 17 22 30 28 30 5 0 9 -13 9 -30 l0 -30 141 0 141 0 -57
46 c-31 26 -69 64 -85 86 l-28 39 91 92 c89 89 95 98 179 267 98 196 133 283
172 417 26 91 36 194 16 163 -6 -10 -10 -11 -10 -2 0 23 -18 12 -24 -16 -4
-18 -17 -32 -36 -41 -17 -7 -30 -18 -30 -24 0 -8 4 -7 12 1 9 9 15 5 25 -18
13 -31 8 -60 -9 -60 -5 0 -12 9 -15 20 -5 19 -6 19 -18 4 -7 -10 -19 -15 -28
-11 -12 4 -15 0 -14 -21 2 -21 -2 -26 -15 -24 -11 2 -18 -3 -18 -14 0 -10 5
-14 15 -10 8 3 15 1 15 -4 0 -6 -3 -10 -7 -10 -10 0 -33 -49 -33 -68 0 -7 -4
-11 -9 -7 -5 3 -12 1 -15 -4 -3 -5 1 -11 9 -15 24 -9 18 -23 -15 -35 -19 -6
-30 -17 -30 -29 0 -30 -13 -34 -33 -10 l-19 23 6 -38 c3 -22 1 -35 -5 -32 -5
4 -9 15 -9 25 0 10 -4 21 -10 25 -14 9 -50 -18 -50 -38 0 -14 -5 -16 -25 -11
-15 4 -25 2 -25 -5 0 -6 5 -11 10 -11 18 0 10 -28 -9 -33 -12 -3 -18 0 -16 7
12 40 15 67 6 62 -5 -4 -12 2 -14 11 -4 17 -5 17 -6 1 -1 -11 -9 -18 -21 -18
-11 0 -19 -3 -18 -7 1 -5 -4 -19 -11 -32 -12 -21 -11 -23 2 -18 23 9 43 -19
27 -38 -10 -12 -9 -15 4 -15 9 0 22 -11 28 -25 10 -23 12 -23 24 -7 13 16 13
16 14 0 0 -10 -9 -22 -19 -27 -20 -11 -31 -3 -45 34 -8 20 -8 20 -16 -2 -5
-12 -17 -26 -27 -32 -16 -9 -16 -12 -3 -22 12 -8 9 -9 -13 -4 -16 3 -26 2 -23
-3 3 -5 0 -21 -7 -36 -9 -21 -17 -25 -34 -21 -16 4 -23 1 -23 -10 0 -8 -4 -15
-10 -15 -5 0 -7 -7 -4 -15 8 -20 -20 -20 -40 1 -14 13 -16 14 -16 0 0 -8 5
-18 10 -21 17 -10 11 -28 -7 -21 -9 4 -20 1 -24 -5 -4 -7 -22 -13 -41 -14 -18
-1 -41 -5 -50 -9 -10 -5 -23 -6 -30 -3 -9 4 -7 6 3 6 9 1 19 8 23 16 6 16 -9
21 -18 6 -10 -16 -46 -20 -46 -5 0 8 6 14 14 14 7 0 20 7 27 16 11 14 10 18
-6 30 -23 17 -39 18 -29 3 4 -8 0 -9 -15 -4 -15 5 -21 2 -21 -9 0 -9 5 -16 11
-16 5 0 7 -5 4 -10 -4 -6 -17 -3 -35 10 l-28 20 -26 -27 c-28 -28 -32 -38 -16
-48 16 -10 -8 -35 -31 -35 -22 0 -22 0 -9 35 9 23 8 26 -7 23 -10 -2 -17 -10
-15 -17 2 -9 -4 -10 -20 -6 -32 10 -32 10 -12 40 13 20 14 29 5 38 -8 8 -11 8
-11 -1 0 -6 -16 -14 -35 -18 -33 -6 -50 -24 -22 -24 8 0 7 -4 -3 -10 -8 -5
-23 -7 -33 -4 -12 4 -26 -2 -39 -16 -11 -12 -22 -19 -25 -16 -3 3 2 12 11 21
21 21 20 24 -4 18 -11 -3 -20 -9 -20 -14 0 -16 -19 -10 -42 13 -19 19 -22 20
-33 5 -13 -18 -65 -23 -65 -7 0 6 9 10 20 10 11 0 19 6 17 13 -1 6 6 11 16 11
9 -1 17 2 17 7 0 5 -18 8 -40 7 -27 -2 -39 -7 -35 -15 2 -7 -2 -13 -9 -13 -8
0 -16 6 -19 14 -3 8 -16 20 -28 26 -12 7 -19 8 -15 2 3 -5 -12 -17 -34 -27
-40 -18 -48 -29 -30 -40 19 -11 10 -23 -20 -27 -29 -4 -31 -3 -25 24 5 21 3
28 -9 28 -9 0 -16 -7 -16 -15 0 -9 -9 -15 -21 -15 -15 0 -19 5 -15 15 4 10 -1
15 -14 15 -11 0 -19 6 -17 13 1 7 -6 11 -19 9 -15 -2 -29 7 -44 28 -12 16 -27
30 -34 30 -7 0 -23 11 -36 25 -21 22 -88 44 -112 37 -5 -1 -8 3 -8 8 0 6 -8
10 -17 10 -13 0 -14 3 -5 12 16 16 15 30 -1 26 -7 -2 -25 9 -40 25 -16 15 -36
28 -45 28 -9 1 -1 5 18 9 33 6 34 7 12 16 -13 6 -24 14 -25 19 -1 6 -12 9 -25
7 -25 -3 -30 16 -6 25 16 6 16 7 0 18 -15 11 -15 13 4 18 23 6 27 27 6 27 -8
0 -17 6 -19 13 -3 7 -6 4 -6 -6 -1 -10 -5 -15 -11 -12 -13 8 -13 45 0 45 13 0
1 32 -17 47 -8 6 -12 16 -8 22 3 6 1 11 -4 11 -6 0 -11 -4 -11 -10 0 -5 -9
-10 -19 -10 -11 0 -22 -6 -25 -12 -3 -7 -3 -1 0 13 4 19 1 28 -11 33 -10 4
-14 2 -9 -5 4 -7 1 -10 -7 -7 -9 3 -14 20 -14 46 0 23 -3 42 -7 42 -12 0 -10
38 2 45 6 3 10 10 10 14 0 12 -43 28 -65 25 -16 -2 -15 2 10 23 17 14 22 23
13 19 -22 -7 -24 19 -4 40 13 12 16 12 24 -2 12 -21 33 -9 25 13 -4 11 -3 14
5 9 7 -4 12 -1 12 9 0 12 -4 14 -19 5 -27 -14 -41 -13 -41 5 0 8 5 15 11 15 6
0 18 8 27 17 16 16 16 16 0 11 -10 -4 -19 -1 -22 7 -3 8 -12 12 -21 9 -11 -4
-14 -2 -9 9 3 8 1 18 -5 21 -5 4 -17 -17 -27 -49 -17 -52 -41 -71 -37 -29 1
10 -4 22 -10 27 -7 5 -3 6 11 2 26 -7 28 2 6 33 -15 22 -15 23 10 16 14 -3 26
-2 26 2 -1 19 -27 42 -46 41 -13 -1 -18 3 -16 16 2 9 -2 25 -7 35 -10 16 -10
16 -11 0 0 -10 -7 -18 -15 -18 -8 0 -15 7 -15 15 0 8 4 15 10 15 5 0 7 7 4 15
-4 8 -2 15 4 15 5 0 15 -7 22 -15 7 -8 16 -15 21 -15 5 0 9 7 9 15 0 8 -4 15
-10 15 -5 0 -10 7 -10 15 0 8 7 15 15 15 20 0 19 29 -1 69 -15 30 -15 34 2 52
9 10 18 36 20 57 1 20 3 39 3 42 1 3 11 -11 22 -30 11 -19 18 -27 15 -18 -3 9
-1 18 3 20 4 2 11 15 15 31 5 20 3 27 -9 27 -8 0 -15 -4 -15 -10 0 -5 -4 -10
-10 -10 -20 0 -9 20 14 26 34 8 55 34 53 66 -2 23 -7 28 -28 28 -36 0 -60 53
-34 73 5 5 0 6 -11 2 -14 -4 -22 -1 -21 7 1 31 -4 48 -13 48 -5 0 -10 -8 -11
-17 0 -11 -3 -13 -6 -5 -2 6 -11 12 -19 12 -10 0 -13 7 -8 24 3 13 1 27 -5 30
-6 4 -11 16 -11 27 0 29 -41 21 -58 -11 -12 -23 -13 -22 -8 18 3 32 1 42 -10
42 -10 0 -13 7 -8 26 5 21 3 25 -12 22 -15 -2 -18 2 -16 24 3 28 -12 46 -23
28 -14 -22 -23 -8 -18 27 4 21 16 46 27 56 l21 18 -22 -6 c-15 -4 -25 0 -32
12 -6 10 -11 12 -11 6 0 -21 -18 -15 -25 8 -6 16 -9 18 -15 8 -5 -7 -5 -21 1
-30 6 -12 4 -19 -7 -23 -9 -3 -12 -2 -9 5 4 5 2 15 -3 22 -5 7 -12 24 -16 38
-6 27 -30 44 -48 33 -5 -3 -1 -12 9 -20 10 -7 14 -14 8 -14 -5 0 -3 -5 5 -10
12 -8 10 -10 -8 -10 -15 0 -21 4 -16 12 4 7 3 8 -4 4 -13 -8 1 -44 20 -57 5
-3 -2 -19 -16 -34 -14 -15 -26 -37 -27 -49 0 -12 -3 -15 -6 -8 -3 7 -16 18
-30 23 -23 8 -25 14 -20 49 7 53 -10 51 -21 -2 l-8 -43 -8 69 c-5 53 -4 72 7
85 8 9 12 22 9 30 -3 8 0 11 6 7 8 -5 11 5 10 27 -1 18 6 44 15 58 21 31 14
40 -19 25 -28 -13 -65 -80 -57 -105 4 -14 3 -14 -7 -1 -9 12 -10 4 -6 -35 2
-27 8 -61 12 -74 6 -20 4 -23 -9 -18 -13 5 -17 1 -18 -16 -1 -18 -2 -16 -10 8
-22 73 24 216 88 272 18 16 23 28 18 42 -5 17 0 23 22 32 26 10 27 12 8 19
-18 7 -19 8 -2 15 12 5 17 18 17 47 0 34 3 39 18 33 34 -13 74 -15 69 -2 -2 7
-10 11 -16 10 -17 -4 -13 8 7 23 16 13 16 14 -3 8 -19 -5 -19 -5 -3 9 10 8 15
16 12 19 -12 13 -6 68 10 83 13 13 14 20 5 31 -9 11 -8 14 5 14 16 0 20 14 16
59 -1 14 2 21 9 17 6 -4 11 0 11 8 0 9 7 16 15 16 9 0 20 10 25 23 6 16 9 17
9 5 1 -9 6 -20 11 -23 16 -10 42 16 37 37 -3 10 -1 21 4 24 5 3 7 9 4 14 -3 4
4 10 15 13 11 3 20 13 20 24 -1 16 -2 16 -13 2 -7 -9 -25 -19 -42 -23 -19 -4
-25 -3 -17 2 11 7 10 10 -3 16 -23 8 -25 8 -22 -6 1 -7 -11 -15 -28 -19 -16
-4 -22 -7 -12 -8 9 0 17 -5 17 -11 0 -14 -12 -12 -38 6 -20 14 -23 14 -28 0
-3 -9 -13 -16 -21 -16 -8 0 -29 -11 -46 -24 -18 -13 -43 -29 -56 -36 -21 -11
-23 -10 -18 3 5 13 1 14 -25 5 -23 -8 -32 -8 -38 2 -4 7 -16 9 -29 5 -33 -10
-25 2 20 31 28 17 38 29 30 34 -9 5 -5 16 13 37 28 33 33 53 14 53 -7 0 17 20
53 45 35 25 64 51 64 58 0 14 66 56 78 50 4 -3 5 -14 1 -25 -5 -17 -3 -19 18
-13 12 4 40 16 60 26 45 23 59 24 52 4 -5 -11 -2 -13 10 -9 9 3 16 15 16 26 0
14 5 18 16 14 8 -3 13 -2 10 2 -6 9 29 42 44 42 6 0 10 -4 10 -10 0 -5 5 -10
11 -10 8 0 8 4 1 13 -7 9 -4 20 13 40 13 15 28 27 34 27 5 0 12 6 15 13 3 6 3
1 0 -13 l-7 -25 27 28 c14 15 26 32 26 38 0 5 12 9 26 9 22 0 25 2 14 15 -10
12 -9 15 6 17 11 0 26 0 34 0 26 -3 61 8 56 17 -3 4 12 16 34 26 22 10 40 24
40 30 0 7 9 15 20 18 11 3 20 1 20 -4 0 -5 9 -9 20 -9 11 0 20 7 20 15 0 8 7
15 16 15 9 0 12 5 8 12 -7 11 30 7 70 -8 15 -6 17 -3 12 13 -9 27 21 39 44 18
26 -24 36 -17 12 8 -23 25 -19 45 5 25 11 -9 16 -9 23 2 7 11 13 10 35 -4 22
-15 29 -16 36 -5 6 11 16 11 54 1 55 -15 109 -16 100 -2 -3 6 -26 10 -50 10
-43 0 -67 13 -43 23 10 4 9 6 -1 6 -11 1 -10 5 3 20 15 17 27 19 70 14 46 -5
49 -4 32 9 -12 10 -17 21 -13 32 7 18 34 16 30 -2 -1 -5 4 -13 12 -16 8 -3 15
-1 15 4 0 18 18 10 23 -10 3 -13 17 -22 36 -26 17 -4 31 -12 31 -19 0 -14 38
-27 52 -19 16 10 7 20 -44 44 -46 21 -50 25 -28 28 13 2 26 0 28 -6 1 -5 13
-7 26 -5 16 3 31 -2 45 -16 12 -12 30 -21 40 -21 11 0 23 -5 27 -12 5 -7 3 -8
-7 -3 -12 7 -12 6 0 -9 12 -14 24 -16 65 -11 l51 6 -29 -26 c-33 -30 -29 -39
19 -39 18 0 31 -4 29 -8 -3 -4 0 -8 5 -8 6 0 11 -7 11 -15 0 -10 10 -15 29
-15 16 0 31 -6 35 -15 7 -18 39 -20 66 -3 32 20 37 -2 5 -27 -33 -27 -30 -40
6 -26 33 12 49 -6 35 -39 -7 -16 -17 -24 -28 -22 -11 2 -18 -3 -18 -12 0 -35
50 -31 68 7 10 20 11 18 11 -16 1 -30 6 -40 21 -44 19 -5 25 -16 21 -37 -1 -5
6 -5 16 -1 37 15 53 17 53 7 0 -6 -5 -14 -11 -17 -7 -5 -5 -13 5 -24 9 -10 13
-21 9 -24 -3 -4 -1 -7 6 -7 8 0 11 7 7 15 -7 18 20 20 31 3 14 -23 53 -38 78
-32 16 4 34 -1 54 -15 31 -22 51 -27 51 -12 0 9 5 10 112 14 50 1 68 -1 68
-11 0 -19 26 -25 61 -13 27 9 33 8 48 -11 11 -13 23 -18 30 -13 11 6 10 9 0
16 -7 4 -11 10 -8 14 3 3 16 -4 29 -15 29 -25 41 -18 27 19 -5 15 -7 37 -3 47
8 18 9 18 17 -3 9 -26 19 -29 37 -11 8 8 15 8 25 -1 25 -20 43 -4 39 34 -4 38
10 47 27 18 7 -12 10 -13 11 -4 0 7 6 11 15 7 20 -7 19 4 -2 20 -17 12 -16 13
7 14 51 0 98 -87 95 -175 -1 -27 2 -60 7 -72 5 -17 4 -23 -7 -23 -8 0 -15 -9
-15 -19 0 -11 -6 -21 -12 -24 -9 -3 -7 -10 7 -21 20 -15 20 -15 -5 -16 -23 -1
-24 -2 -7 -14 13 -10 15 -15 5 -18 -10 -4 -13 -39 -13 -147 0 -114 -3 -144
-15 -152 -11 -8 -12 -12 -2 -16 6 -2 12 -14 12 -25 0 -15 -5 -18 -22 -13 -20
5 -21 4 -7 -7 12 -10 15 -28 13 -82 -2 -38 -6 -71 -8 -73 -3 -3 -11 11 -19 30
-17 39 -77 78 -77 50 0 -9 8 -22 18 -30 15 -13 15 -14 -8 -8 -23 6 -24 5 -7
-8 15 -13 13 -15 -30 -21 -33 -4 -49 -2 -55 6 -4 7 -8 9 -8 4 0 -6 -6 -2 -13
8 -10 13 -26 18 -55 18 -40 -1 -73 17 -35 19 11 0 13 3 5 6 -7 3 -19 0 -26 -7
-10 -7 -16 -8 -21 0 -3 5 -1 10 5 10 6 0 8 5 5 11 -4 5 7 15 24 22 29 10 42
27 23 27 -5 0 -9 7 -9 15 0 9 6 14 14 11 7 -3 13 0 13 5 0 7 -11 9 -24 7 -17
-3 -23 -1 -19 8 5 15 63 40 82 36 7 -2 10 1 6 7 -3 6 -1 11 4 11 6 0 11 5 11
10 0 16 -18 12 -40 -10 -11 -11 -25 -20 -31 -20 -6 0 3 11 19 25 20 17 42 25
66 25 30 0 38 5 47 26 12 33 5 42 -17 19 -12 -12 -19 -13 -24 -5 -4 6 -13 11
-21 10 -8 -1 -38 -2 -68 -1 -46 1 -52 3 -41 16 10 12 7 13 -22 3 -51 -16 -107
-22 -88 -9 13 10 13 12 0 21 -15 11 -71 7 -127 -6 -26 -7 -27 -6 -14 10 14 17
12 17 -35 12 -70 -9 -77 -9 -99 -7 -17 1 -18 3 -5 11 13 9 13 11 0 20 -10 6
-17 5 -20 -4 -9 -23 -45 -62 -64 -69 -11 -4 -16 -13 -12 -23 3 -8 2 -12 -3 -9
-6 3 -13 -1 -18 -8 -12 -20 -65 -28 -85 -13 -10 7 -18 22 -18 32 0 10 -4 25
-9 32 -6 10 -10 5 -14 -17 -5 -22 -12 -31 -27 -31 -16 0 -20 -7 -20 -35 0 -19
-5 -35 -11 -35 -8 0 -7 -6 2 -17 8 -9 13 -19 13 -22 -1 -3 2 -16 7 -28 4 -12
6 -42 3 -67 -4 -32 -1 -55 11 -78 16 -30 22 -69 29 -168 3 -50 23 -82 46 -75
10 3 25 -1 33 -10 23 -23 27 -19 22 24 -2 26 1 44 11 52 12 9 14 6 14 -24 0
-29 13 -47 33 -47 2 0 3 18 3 40 1 22 -2 40 -6 40 -3 0 -7 6 -7 13 0 6 -2 19
-4 27 -3 9 5 16 21 18 14 2 32 6 40 9 8 3 18 5 23 5 4 -1 7 4 7 12 0 8 8 13
18 12 10 0 16 6 16 17 -1 9 2 17 7 17 5 0 9 -9 9 -19 0 -24 20 -32 55 -22 l27
7 -28 13 c-50 22 -7 30 86 15 47 -8 92 -12 100 -9 22 6 92 -11 100 -26 5 -6
15 -9 24 -6 11 5 16 1 16 -14 0 -11 4 -18 9 -14 6 3 9 -7 8 -21 -1 -15 4 -29
11 -31 6 -3 12 3 12 12 0 12 4 13 18 7 9 -5 40 -12 68 -15 37 -4 59 -13 82
-35 18 -17 32 -35 32 -41 0 -6 4 -11 8 -11 5 0 17 -7 28 -15 18 -15 18 -15 0
-8 -13 4 -17 3 -12 -5 4 -7 1 -12 -8 -12 -9 0 -18 11 -22 24 -4 17 -11 23 -21
19 -13 -5 -8 -14 22 -41 36 -33 39 -34 46 -16 7 18 8 18 8 -2 1 -11 -5 -29
-13 -39 -8 -11 -11 -27 -7 -35 13 -27 -6 -250 -20 -250 -9 0 -13 15 -10 37 3
21 -19 53 -35 53 -10 0 -13 -7 -8 -25 4 -17 2 -25 -7 -25 -11 0 -11 -3 1 -11
12 -8 9 -9 -12 -5 -31 7 -48 -11 -21 -21 14 -6 11 -9 -16 -13 -33 -5 -39 -12
-87 -110 -6 -14 -21 -29 -33 -35 -22 -10 -28 -25 -11 -25 6 0 10 -5 10 -11 0
-6 -9 -9 -20 -6 -27 7 -25 -1 3 -13 17 -7 18 -9 5 -9 -20 -1 -25 -36 -7 -46 6
-4 8 -13 5 -20 -2 -7 4 -21 15 -31 10 -9 19 -26 19 -37 0 -14 5 -18 20 -14 12
3 17 1 14 -5 -3 -5 2 -18 12 -29 25 -28 -2 -24 -31 5 -13 13 -27 21 -31 17 -4
-3 -5 1 -1 10 3 11 -5 24 -23 38 -16 11 -32 21 -35 21 -12 0 -4 -28 10 -34 21
-8 19 -23 -5 -29 -20 -5 -28 -27 -10 -27 6 0 10 -7 10 -16 0 -8 -4 -12 -10 -9
-6 3 -7 -1 -4 -10 6 -14 8 -13 20 4 8 11 11 27 7 37 -4 12 -2 15 8 12 8 -3 14
-11 14 -19 1 -8 6 -13 13 -12 7 2 12 -5 12 -14 0 -9 3 -14 6 -10 7 7 64 -13
64 -23 0 -4 -7 -13 -15 -20 -8 -7 -15 -21 -15 -32 0 -13 -6 -18 -18 -16 -11 2
-18 -1 -18 -7 1 -5 4 -9 7 -8 7 2 27 -65 31 -106 4 -31 28 -41 28 -11 0 12 4
18 10 15 17 -11 11 17 -7 30 -16 12 -16 14 2 31 18 19 18 18 13 -4 -10 -36 10
-15 36 40 13 28 22 57 19 64 -3 8 0 14 6 14 11 0 9 126 -3 137 -3 4 2 15 11
25 13 14 14 21 5 30 -15 15 -15 28 -2 28 6 0 10 -6 10 -14 0 -8 7 -17 16 -20
8 -3 12 -10 9 -16 -3 -5 -3 -15 1 -21 15 -24 23 18 18 89 -5 62 -2 77 15 106
12 18 21 45 21 60 0 14 3 26 8 26 25 -1 31 -22 34 -110 3 -83 5 -95 21 -94 24
2 22 -12 -3 -19 -15 -4 -20 -14 -20 -42 0 -32 2 -36 15 -25 8 7 15 24 16 39 0
23 1 24 9 6 8 -18 9 -18 9 6 1 14 4 29 8 33 4 4 8 25 9 47 1 22 7 45 13 52 5
7 8 23 4 35 -6 23 6 29 23 12 13 -13 30 4 36 35 2 11 11 20 21 20 30 0 50 42
42 88 -3 23 -7 52 -8 65 -1 21 -17 33 -17 12 0 -28 -20 -4 -35 41 -14 41 -19
49 -27 35 -5 -9 -7 -20 -3 -25 3 -5 1 -12 -5 -16 -5 -3 -10 -1 -10 4 0 6 -5
11 -11 11 -7 0 -9 -10 -5 -25 4 -14 2 -25 -3 -25 -11 0 -26 154 -16 169 15 25
24 8 19 -32 -5 -32 -2 -46 10 -56 14 -12 15 -8 12 40 -3 30 -9 66 -15 82 -7
17 -7 28 -1 29 27 4 35 2 36 -7 2 -20 29 -75 36 -75 11 0 10 18 -2 25 -5 3
-10 21 -10 40 0 19 -5 46 -10 61 -8 20 -8 30 1 38 9 8 10 8 5 -1 -3 -6 -2 -14
4 -18 12 -7 12 -8 9 125 -4 158 -3 180 11 245 7 33 13 97 13 142 1 45 4 80 8
77 4 -2 5 5 2 16 -3 11 -9 23 -14 26 -5 3 -9 10 -9 16 0 7 6 6 15 -2 20 -17
20 8 0 57 -9 20 -12 39 -8 42 8 6 13 27 16 63 1 9 4 15 7 13 21 -13 33 254 16
330 -6 23 -3 33 16 48 21 17 21 18 3 13 -16 -5 -21 -1 -21 14 0 14 7 20 24 20
21 0 23 2 12 15 -7 9 -10 18 -6 22 3 3 6 1 6 -5 0 -7 4 -12 9 -12 5 0 7 9 4
20 -3 11 -12 20 -19 20 -19 0 -18 10 2 25 14 9 14 16 5 33 -6 12 -16 22 -21
22 -19 0 -10 21 13 30 17 7 18 9 5 9 -10 1 -18 5 -18 10 0 5 -8 12 -17 14 -14
4 -13 5 4 6 21 1 22 3 11 29 -6 15 -20 35 -30 44 -21 19 -8 33 22 23 19 -6 20
-3 14 22 -4 15 -10 33 -14 38 -3 6 -7 23 -8 40 -1 16 -8 33 -15 36 -6 4 -27
19 -46 33 -38 29 -27 35 19 11 34 -17 35 -16 18 20 -9 20 -18 25 -50 25 -24 0
-37 -4 -33 -10 3 -5 1 -10 -4 -10 -6 0 -11 5 -11 10 0 7 -541 10 -1602 10
l-1603 0 -28 -35z m153 -1883 c0 -36 3 -42 13 -33 17 14 27 4 27 -25 0 -15 10
-29 28 -38 18 -10 21 -15 10 -16 -20 0 -26 -29 -17 -88 3 -23 2 -45 -3 -48
-15 -10 -19 1 -23 59 -3 62 -22 127 -36 127 -5 0 -9 -6 -9 -12 0 -7 -7 -2 -16
11 -16 22 -17 23 -27 5 -6 -11 -10 -32 -8 -47 3 -36 -14 -57 -48 -57 -32 0
-80 43 -61 55 6 4 9 18 5 34 -6 28 14 80 40 101 12 10 15 9 16 -6 0 -11 3 -14
6 -6 2 6 8 10 12 7 5 -2 21 9 37 26 26 28 30 29 41 13 7 -10 13 -38 13 -62z"/>
<path d="M1410 2780 c-24 -3 -35 -11 -36 -22 -1 -10 3 -18 10 -18 6 0 22 -10
36 -21 l25 -21 -27 5 c-16 2 -28 0 -28 -4 0 -5 6 -9 13 -10 6 0 3 -4 -8 -9
-16 -7 -11 -9 20 -9 46 -1 149 -34 138 -44 -3 -4 -23 -7 -44 -7 -30 0 -37 -3
-33 -15 5 -12 -3 -15 -37 -16 -60 -1 -77 -4 -126 -22 -23 -9 -62 -19 -87 -22
-29 -5 -46 -12 -46 -21 0 -18 -19 -18 -64 1 -40 17 -50 5 -11 -13 39 -18 29
-28 -26 -26 -38 1 -54 7 -64 21 -8 11 -11 23 -8 27 3 3 -1 6 -10 6 -9 0 -17 4
-17 9 0 4 -23 18 -51 30 -104 43 -92 28 103 -118 37 -28 75 -51 85 -51 14 0
15 -2 4 -9 -14 -9 -65 1 -84 18 -7 5 -48 16 -92 24 -44 9 -89 19 -100 23 -13
4 -17 4 -10 -3 6 -5 28 -15 50 -21 187 -51 212 -63 159 -76 -15 -4 -24 -9 -21
-12 3 -3 38 1 77 10 56 13 77 23 96 46 35 41 95 50 322 47 159 -2 194 -5 202
-17 5 -8 10 -11 10 -6 0 5 6 4 13 -2 8 -7 26 -8 52 -2 25 6 44 5 49 0 13 -13
46 -13 46 0 0 6 -11 16 -25 22 -14 6 -25 15 -25 20 0 11 17 10 25 -2 3 -5 24
-14 46 -20 49 -13 56 -29 36 -78 -16 -40 -13 -61 12 -79 12 -9 18 -9 23 1 4 7
17 12 30 10 13 -1 26 -3 31 -3 4 -1 7 -11 7 -23 1 -21 2 -22 14 -5 7 9 18 17
24 17 8 0 10 15 6 45 -3 28 -1 45 6 45 5 0 10 7 10 15 0 8 7 15 15 15 14 0 20
30 16 85 -1 12 5 34 13 50 9 17 12 40 9 58 -4 19 -1 32 8 39 11 8 11 9 -3 5
-22 -8 -29 14 -12 44 7 13 13 33 13 44 0 19 -1 19 -9 -1 -5 -14 -21 -24 -44
-28 -42 -8 -106 2 -106 16 0 6 -7 7 -16 4 -10 -4 -25 1 -35 10 -10 9 -22 13
-28 10 -5 -4 -12 -2 -15 3 -3 4 -41 6 -85 4 -59 -4 -100 0 -163 16 -81 21
-166 24 -258 11z"/>
<path d="M3731 2491 c-8 -5 -15 -30 -17 -61 -1 -28 -5 -55 -9 -58 -4 -4 -6 2
-5 13 5 46 -1 105 -10 105 -6 0 -10 -34 -10 -82 0 -46 -4 -89 -9 -96 -14 -22
-19 7 -15 79 2 47 1 59 -7 46 -5 -9 -7 -22 -4 -27 3 -6 0 -13 -9 -16 -43 -17
-52 -272 -11 -351 l12 -23 13 28 c7 15 12 33 11 40 -1 8 3 20 10 29 10 12 10
16 -2 24 -11 7 -8 9 10 9 20 0 23 4 18 26 -3 18 0 27 12 31 42 15 69 63 36 63
-8 0 -15 5 -15 10 0 6 6 10 14 10 17 0 26 31 26 91 0 30 -5 49 -13 52 -9 3
-12 16 -9 36 5 34 4 35 -17 22z"/>
<path d="M2006 2004 c-3 -8 -10 -13 -16 -9 -5 3 -22 -12 -37 -34 -16 -22 -36
-42 -45 -44 -10 -3 -18 -14 -18 -25 0 -11 -9 -22 -20 -25 -11 -3 -20 -9 -19
-14 4 -23 -3 -32 -28 -35 -21 -2 -29 -9 -32 -28 -1 -14 -15 -36 -30 -50 -33
-32 -61 -75 -61 -93 0 -8 -10 -22 -22 -30 -20 -14 -21 -18 -8 -26 13 -9 13
-11 -2 -11 -10 0 -18 -8 -19 -17 0 -10 -2 -30 -4 -45 -3 -23 0 -28 18 -28 18
0 19 -2 7 -10 -8 -5 -10 -10 -4 -10 6 0 28 16 49 36 26 24 40 32 45 24 5 -9 9
-9 14 -1 16 25 51 11 74 -29 13 -22 27 -38 31 -35 5 3 21 -2 37 -10 15 -7 31
-12 35 -9 4 2 24 -7 45 -21 32 -22 36 -30 12 -26 -5 0 -8 -5 -8 -12 0 -9 10
-12 30 -9 27 4 45 32 20 32 -13 0 -13 37 1 46 6 3 16 1 22 -5 8 -8 8 -11 -1
-11 -7 0 -12 -5 -12 -10 0 -6 11 -8 25 -4 20 5 25 2 31 -20 7 -29 14 -32 32
-14 8 8 16 5 32 -13 15 -16 23 -20 26 -11 7 15 44 16 44 1 0 -6 6 -9 14 -6 8
3 16 -2 19 -14 3 -11 9 -19 14 -18 15 2 53 -13 53 -22 0 -5 5 -9 11 -9 5 0 7
5 4 10 -3 6 -3 20 0 31 7 20 7 20 20 1 8 -10 17 -42 21 -71 9 -67 30 -63 27 5
-2 36 0 44 6 29 9 -19 10 -18 12 5 1 14 2 31 2 38 -1 6 5 12 12 12 7 0 16 6
18 13 4 9 8 9 15 -2 9 -13 13 -13 27 -1 14 12 18 12 26 -1 6 -10 9 -11 9 -1 0
7 5 10 10 7 7 -4 7 -12 0 -25 -13 -25 -13 -26 9 -27 11 -1 21 6 24 18 4 17 3
18 -9 8 -8 -7 -14 -7 -14 -1 0 5 7 15 15 22 8 7 12 16 9 21 -3 5 1 9 8 9 21 0
39 -16 36 -31 -2 -9 4 -13 15 -11 14 2 17 -2 12 -25 -3 -15 -2 -22 1 -15 5 10
9 9 20 -5 7 -10 14 -13 14 -6 0 7 7 10 16 6 8 -3 13 -12 10 -19 -3 -8 -1 -14
4 -14 5 0 17 -17 27 -37 9 -21 20 -40 24 -43 14 -10 27 -87 17 -104 -15 -27
15 -19 37 10 23 30 28 107 8 99 -14 -5 -35 27 -31 47 2 7 -4 12 -12 10 -11 -3
-12 -1 -4 8 7 7 21 9 33 5 22 -7 29 -25 10 -25 -5 0 -7 -5 -4 -10 4 -6 11 -8
16 -4 5 3 16 0 24 -6 11 -9 18 -8 31 4 9 10 13 20 9 24 -4 4 -10 1 -12 -5 -5
-15 -33 -18 -33 -4 0 5 16 15 35 22 29 11 33 17 29 35 -3 13 -2 29 2 36 15 24
14 41 -1 28 -11 -9 -20 -7 -39 7 -14 10 -23 24 -21 31 4 10 0 10 -16 2 -11 -6
-25 -9 -32 -6 -7 2 -4 5 6 5 21 1 23 21 2 21 -20 0 -19 29 3 53 16 19 16 19
-4 13 -19 -6 -21 -3 -16 21 5 25 4 27 -11 14 -22 -17 -22 2 -1 23 22 23 14 50
-18 54 -16 2 -28 11 -31 23 -4 15 -11 19 -25 15 -12 -4 -26 0 -35 9 -20 19
-27 19 -27 -1 0 -8 -4 -13 -9 -10 -5 3 -7 14 -4 24 3 11 -7 25 -27 40 -17 13
-29 29 -27 35 2 6 -5 18 -15 27 -15 12 -20 30 -21 80 -1 37 -8 71 -15 79 -20
21 -11 57 13 53 l20 -2 -20 11 c-11 7 -23 17 -27 23 -5 8 -8 7 -8 -1 0 -7 -9
-13 -19 -13 -23 0 -30 -16 -45 -100 -12 -67 -5 -100 26 -125 7 -5 21 -25 32
-44 15 -27 16 -35 5 -42 -8 -5 -16 -3 -21 4 -5 8 -9 6 -14 -6 -8 -22 -66 -47
-109 -47 -18 0 -38 -7 -45 -15 -7 -8 -20 -15 -28 -15 -13 0 -12 2 3 14 16 12
13 14 -36 18 -32 4 -59 1 -68 -5 -15 -13 -91 -17 -91 -5 0 4 -6 8 -13 8 -8 0
-31 16 -51 36 -22 22 -43 34 -52 30 -10 -4 -18 4 -26 24 -12 36 -28 30 -28 -9
0 -44 -60 -81 -74 -45 -7 18 14 75 25 68 5 -3 9 -1 9 5 0 6 12 14 28 17 15 4
32 9 37 13 6 3 17 6 25 6 9 0 21 18 29 44 12 37 12 54 2 95 -7 28 -12 61 -13
74 0 25 -13 29 -22 6z"/>
<path d="M2510 1247 c0 -14 7 -28 17 -31 14 -6 15 -9 4 -16 -8 -4 -20 -6 -27
-3 -8 3 -11 -2 -7 -16 3 -12 11 -17 19 -14 20 8 17 -11 -5 -31 -17 -16 -27
-16 -94 -6 -77 11 -122 7 -135 -15 -11 -19 -72 -27 -78 -11 -4 9 -18 13 -40
11 -19 -1 -37 1 -39 6 -5 7 -50 6 -65 -1 -3 -1 -18 -4 -35 -5 -94 -10 -113
-13 -124 -19 -6 -4 -35 -11 -64 -16 -43 -6 -56 -5 -78 11 -30 21 -103 24 -95
3 3 -7 -2 -15 -10 -18 -8 -3 -17 1 -20 9 -9 21 -34 18 -34 -4 0 -13 -12 -22
-44 -31 -43 -12 -44 -13 -35 -43 11 -40 11 -40 -3 -31 -7 5 -8 3 -3 -6 4 -7 2
-16 -6 -21 -11 -7 -11 -9 2 -9 20 0 118 28 146 42 13 7 45 8 81 4 34 -4 70 -2
86 4 18 6 25 6 21 0 -3 -6 1 -10 9 -10 8 0 18 5 21 10 4 6 14 9 23 6 10 -3 55
-8 102 -11 47 -4 88 -9 93 -12 4 -3 13 -1 20 5 7 5 50 5 112 -1 64 -6 100 -6
102 0 4 11 162 5 178 -7 6 -4 39 -8 74 -8 51 -2 72 -7 101 -27 20 -14 40 -25
44 -25 13 0 36 28 36 44 0 10 6 13 17 9 14 -5 15 -1 10 25 -4 19 -2 32 3 32
22 0 8 19 -20 29 -21 7 -30 7 -30 -1 0 -5 -7 -7 -16 -4 -14 5 -15 4 -4 -9 7
-9 10 -18 6 -22 -3 -3 -6 -1 -6 5 0 7 -10 12 -22 12 -15 0 -19 3 -11 8 10 6 9
14 -2 36 -19 37 -19 46 3 47 11 0 12 2 4 6 -10 4 -10 8 -1 19 6 8 7 14 2 14
-6 0 -15 -10 -20 -22 -10 -21 -11 -22 -18 -4 -5 11 -3 21 5 26 11 7 10 11 -3
24 -9 9 -18 12 -21 7 -4 -5 0 -11 6 -14 9 -3 6 -11 -9 -26 -23 -22 -53 -28
-53 -11 0 6 9 10 20 10 21 0 27 15 10 25 -5 3 -10 15 -10 26 0 15 -6 19 -20
17 -14 -2 -25 5 -33 21 -17 34 -37 38 -37 8z"/>
<path d="M1813 895 c-41 -17 -41 -34 -3 -65 16 -14 29 -33 30 -42 0 -11 5 -15
14 -12 8 3 26 -2 40 -11 15 -10 35 -15 47 -12 15 4 23 0 26 -13 4 -15 14 -17
81 -15 43 1 85 6 95 10 9 4 17 3 17 -1 0 -5 24 -10 53 -12 28 -1 68 -8 87 -15
34 -11 90 -61 90 -80 0 -5 21 -8 48 -7 84 4 119 1 102 -10 -9 -6 -10 -10 -3
-10 6 0 15 5 18 10 9 14 58 13 73 -2 9 -9 12 -8 12 5 0 20 40 24 40 5 1 -9 4
-8 13 2 7 8 21 15 32 14 22 0 75 26 75 37 0 4 3 16 6 26 5 15 4 15 -5 3 -6 -8
-11 -10 -11 -4 0 6 9 23 20 37 23 29 25 41 8 34 -7 -2 -18 3 -25 12 -11 14
-12 12 -13 -12 0 -16 -7 -30 -16 -34 -13 -5 -13 -7 -2 -14 9 -6 3 -8 -17 -8
-16 0 -24 3 -17 6 10 4 10 8 0 20 -11 14 -10 15 10 9 15 -5 22 -3 22 6 0 16
-50 48 -77 49 -14 0 -14 2 5 10 13 5 20 14 17 19 -4 7 -19 4 -41 -9 l-34 -20
-5 22 c-4 13 -19 28 -34 35 -16 7 -31 22 -34 33 -5 17 -11 19 -44 13 -21 -4
-43 -11 -49 -15 -6 -5 -33 -11 -60 -14 -27 -3 -71 -10 -98 -16 -29 -7 -75 -9
-115 -5 -148 15 -218 25 -256 35 -78 20 -90 21 -122 6z"/>
<path d="M1715 799 c-22 -3 -31 -7 -20 -8 11 -2 15 -5 7 -8 -6 -2 -9 -9 -6
-15 3 -5 -2 -16 -12 -24 -18 -13 -18 -14 1 -8 11 3 7 -3 -10 -13 -30 -17 -30
-18 -6 -21 13 -2 28 1 34 7 6 6 18 11 27 10 8 0 4 -5 -10 -10 -20 -8 -22 -12
-10 -19 12 -8 11 -10 -4 -10 -15 0 -17 -3 -9 -11 9 -9 18 -8 37 5 15 9 26 12
26 7 0 -6 -8 -15 -17 -21 -15 -9 -14 -10 6 -4 13 3 41 6 62 6 21 -1 41 4 45 9
3 5 14 7 24 4 10 -3 21 -1 25 5 3 6 11 8 16 5 5 -4 9 1 9 9 0 9 8 16 18 16 16
1 16 1 -1 11 -12 7 -27 7 -45 0 -21 -7 -22 -10 -7 -10 16 -1 17 -3 6 -13 -11
-10 -15 -10 -18 -1 -3 8 -17 10 -36 8 l-32 -5 29 10 c50 16 62 50 17 50 -29 0
-57 21 -44 33 3 4 1 7 -5 7 -19 0 -23 -18 -8 -33 8 -8 13 -17 10 -20 -7 -7
-44 23 -52 43 -5 11 -17 14 -47 9z"/>
</g>
</svg>
